<svg width="186" height="62" viewBox="0 0 186 62" fill="none" xmlns="http://www.w3.org/2000/svg">
<path d="M1.09141 1.10488C0.916211 1.29355 0.794922 1.59004 0.794922 1.83261C0.794922 2.27734 10.3902 23.2469 10.9293 23.9746C11.4279 24.6619 12.3713 25.174 13.5437 25.3896C15.8348 25.8344 17.1016 27.2764 17.1016 29.4191C17.1016 30.4838 16.6838 31.4002 15.8348 32.1684C15.134 32.8152 14.8375 32.95 13.6516 33.2061C12.2096 33.516 11.2527 34.1898 10.6867 35.2949C9.41992 37.7881 0.794922 56.8574 0.794922 57.1539C0.794922 57.666 1.33398 58.2051 1.84609 58.2051C2.0752 58.2051 6.69766 56.1566 12.9373 53.2727C24.1094 48.1381 24.2172 48.0842 24.9314 46.9252C25.0797 46.6961 25.2818 46.0357 25.3896 45.4832C25.6322 44.2434 25.9422 43.61 26.6295 42.9496C27.3977 42.2084 28.1793 41.8984 29.3248 41.8984C30.1469 41.8984 30.4029 41.9658 31.1441 42.3432C32.2762 42.9227 32.9096 43.8391 33.2061 45.2676C33.4352 46.3996 33.9203 47.2891 34.6211 47.8416C35.2814 48.3672 56.6688 58.2051 57.1539 58.2051C57.666 58.2051 58.2051 57.666 58.2051 57.1404C58.2051 56.8979 56.2375 52.491 53.2592 46.0088C48.0842 34.7693 47.9764 34.5807 46.8982 34.0146C46.6691 33.9068 46.0088 33.7047 45.4428 33.5969C44.2164 33.3408 43.8256 33.1656 43.0979 32.5053C42.3027 31.791 42.0063 31.1037 41.9254 29.8908C41.8715 29.0014 41.9119 28.7588 42.1949 28.1254C42.8014 26.8316 43.7447 26.1174 45.335 25.7939C46.4535 25.5514 47.1543 25.174 47.7338 24.5137C48.2998 23.8398 58.2051 2.39863 58.2051 1.83261C58.2051 1.33398 57.6525 0.794922 57.1404 0.794922C56.7361 0.794922 36.0766 10.215 35.1467 10.835C34.4863 11.2662 33.8529 12.2635 33.6643 13.1664C33.3408 14.7566 33.1252 15.2553 32.4109 15.9561C31.6023 16.7781 30.7803 17.1016 29.5809 17.1016C27.6807 17.1016 26.2252 15.8078 25.7939 13.7324C25.5514 12.6004 25.0797 11.7109 24.3789 11.1584C23.6646 10.5789 2.3582 0.794922 1.81914 0.794922C1.53613 0.794922 1.28008 0.902733 1.09141 1.10488ZM30.4568 23.8398C32.2762 24.1902 33.8934 25.4031 34.6346 26.9934C35.4701 28.7857 35.4432 30.3355 34.5537 32.1549C33.7451 33.799 32.2762 34.8502 30.3355 35.1871C28.5162 35.4971 26.5217 34.7828 25.2414 33.3678C23.1795 31.0768 23.2604 27.6268 25.4436 25.457C26.2656 24.635 27.1551 24.1498 28.2871 23.8937C29.2305 23.6781 29.5674 23.6781 30.4568 23.8398Z" fill="#6A80FF"/>
<path d="M28.7453 26.1174C27.4381 26.4543 26.3869 27.5055 26.1309 28.7453C25.6727 30.9824 27.2359 32.9096 29.5135 32.9231C32.2762 32.9365 33.8664 29.8504 32.2896 27.519C31.5619 26.4543 29.9447 25.8074 28.7453 26.1174Z" fill="#4863F7"/>
<path d="M55.44 21.928C58.512 21.928 60.976 22.952 62.832 25C64.688 27.016 65.616 29.8 65.616 33.352V49H57.456V34.456C57.456 32.664 56.992 31.272 56.064 30.28C55.136 29.288 53.888 28.792 52.32 28.792C50.752 28.792 49.504 29.288 48.576 30.28C47.648 31.272 47.184 32.664 47.184 34.456V49H38.976V13.48H47.184V25.816C48.016 24.632 49.152 23.688 50.592 22.984C52.032 22.28 53.648 21.928 55.44 21.928ZM68.0077 35.56C68.0077 32.808 68.5197 30.392 69.5437 28.312C70.5997 26.232 72.0237 24.632 73.8157 23.512C75.6078 22.392 77.6078 21.832 79.8158 21.832C81.7038 21.832 83.3517 22.216 84.7597 22.984C86.1998 23.752 87.3038 24.76 88.0718 26.008V22.216H96.2798V49H88.0718V45.208C87.2718 46.456 86.1518 47.464 84.7118 48.232C83.3038 49 81.6558 49.384 79.7677 49.384C77.5918 49.384 75.6078 48.824 73.8157 47.704C72.0237 46.552 70.5997 44.936 69.5437 42.856C68.5197 40.744 68.0077 38.312 68.0077 35.56ZM88.0718 35.608C88.0718 33.56 87.4958 31.944 86.3438 30.76C85.2238 29.576 83.8478 28.984 82.2157 28.984C80.5837 28.984 79.1918 29.576 78.0398 30.76C76.9198 31.912 76.3598 33.512 76.3598 35.56C76.3598 37.608 76.9198 39.24 78.0398 40.456C79.1918 41.64 80.5837 42.232 82.2157 42.232C83.8478 42.232 85.2238 41.64 86.3438 40.456C87.4958 39.272 88.0718 37.656 88.0718 35.608ZM108.746 26.008C109.514 24.76 110.618 23.752 112.058 22.984C113.498 22.216 115.146 21.832 117.002 21.832C119.21 21.832 121.21 22.392 123.002 23.512C124.794 24.632 126.202 26.232 127.226 28.312C128.282 30.392 128.81 32.808 128.81 35.56C128.81 38.312 128.282 40.744 127.226 42.856C126.202 44.936 124.794 46.552 123.002 47.704C121.21 48.824 119.21 49.384 117.002 49.384C115.114 49.384 113.466 49.016 112.058 48.28C110.65 47.512 109.546 46.504 108.746 45.256V49H100.538V13.48H108.746V26.008ZM120.458 35.56C120.458 33.512 119.882 31.912 118.73 30.76C117.61 29.576 116.218 28.984 114.554 28.984C112.922 28.984 111.53 29.576 110.378 30.76C109.258 31.944 108.698 33.56 108.698 35.608C108.698 37.656 109.258 39.272 110.378 40.456C111.53 41.64 112.922 42.232 114.554 42.232C116.186 42.232 117.578 41.64 118.73 40.456C119.882 39.24 120.458 37.608 120.458 35.56ZM135.564 19.432C134.124 19.432 132.94 19.016 132.012 18.184C131.116 17.32 130.668 16.264 130.668 15.016C130.668 13.736 131.116 12.68 132.012 11.848C132.94 10.984 134.124 10.552 135.564 10.552C136.972 10.552 138.124 10.984 139.02 11.848C139.948 12.68 140.412 13.736 140.412 15.016C140.412 16.264 139.948 17.32 139.02 18.184C138.124 19.016 136.972 19.432 135.564 19.432ZM139.644 22.216V49H131.436V22.216H139.644ZM158.84 42.04V49H154.664C151.688 49 149.368 48.28 147.704 46.84C146.04 45.368 145.208 42.984 145.208 39.688V29.032H141.944V22.216H145.208V15.688H153.416V22.216H158.792V29.032H153.416V39.784C153.416 40.584 153.608 41.16 153.992 41.512C154.376 41.864 155.016 42.04 155.912 42.04H158.84ZM172.628 49.384C170.292 49.384 168.212 48.984 166.388 48.184C164.564 47.384 163.124 46.296 162.068 44.92C161.012 43.512 160.42 41.944 160.292 40.216H168.404C168.5 41.144 168.932 41.896 169.7 42.472C170.468 43.048 171.412 43.336 172.532 43.336C173.556 43.336 174.34 43.144 174.884 42.76C175.46 42.344 175.748 41.816 175.748 41.176C175.748 40.408 175.348 39.848 174.548 39.496C173.748 39.112 172.452 38.696 170.66 38.248C168.74 37.8 167.14 37.336 165.86 36.856C164.58 36.344 163.476 35.56 162.548 34.504C161.62 33.416 161.156 31.96 161.156 30.136C161.156 28.6 161.572 27.208 162.404 25.96C163.268 24.68 164.516 23.672 166.148 22.936C167.812 22.2 169.78 21.832 172.052 21.832C175.412 21.832 178.052 22.664 179.972 24.328C181.924 25.992 183.044 28.2 183.332 30.952H175.748C175.62 30.024 175.204 29.288 174.5 28.744C173.828 28.2 172.932 27.928 171.812 27.928C170.852 27.928 170.116 28.12 169.604 28.504C169.092 28.856 168.836 29.352 168.836 29.992C168.836 30.76 169.236 31.336 170.036 31.72C170.868 32.104 172.148 32.488 173.876 32.872C175.86 33.384 177.476 33.896 178.724 34.408C179.972 34.888 181.06 35.688 181.988 36.808C182.948 37.896 183.444 39.368 183.476 41.224C183.476 42.792 183.028 44.2 182.132 45.448C181.268 46.664 180.004 47.624 178.34 48.328C176.708 49.032 174.804 49.384 172.628 49.384Z" fill="white"/>
</svg>
