<svg width="243" height="225" viewBox="0 0 243 225" fill="none" xmlns="http://www.w3.org/2000/svg">
<path d="M1.11282 6.42551C0.455245 7.13451 0 8.24866 0 9.16023C0 10.8315 36.0149 89.632 38.0382 92.3667C39.9098 94.9495 43.4506 96.874 47.8513 97.6842C56.4503 99.3555 61.2051 104.774 61.2051 112.827C61.2051 116.827 59.6371 120.271 56.4503 123.158C53.82 125.589 52.7072 126.095 48.2559 127.057C42.8436 128.222 39.2522 130.754 37.1277 134.907C32.373 144.276 0 215.936 0 217.05C0 218.974 2.02331 221 3.94545 221C4.80536 221 22.1552 213.302 45.5751 202.465C87.5082 183.17 87.9128 182.967 90.5937 178.612C91.1501 177.751 91.9089 175.269 92.3135 173.193C93.224 168.534 94.3874 166.154 96.9671 163.672C99.8503 160.887 102.784 159.722 107.084 159.722C110.169 159.722 111.13 159.975 113.912 161.393C118.161 163.571 120.539 167.015 121.652 172.383C122.511 176.637 124.332 179.979 126.963 182.056C129.441 184.031 209.716 221 211.537 221C213.459 221 215.483 218.974 215.483 216.999C215.483 216.088 208.097 199.527 196.919 175.168C177.495 132.932 177.09 132.223 173.044 130.096C172.184 129.691 169.705 128.931 167.581 128.526C162.978 127.564 161.511 126.905 158.779 124.424C155.795 121.74 154.682 119.157 154.379 114.599C154.176 111.257 154.328 110.345 155.39 107.965C157.666 103.103 161.207 100.419 167.176 99.2035C171.374 98.292 174.005 96.874 176.18 94.3924C178.304 91.8603 215.483 11.2872 215.483 9.16023C215.483 7.28644 213.409 5.26072 211.486 5.26072C209.969 5.26072 132.426 40.6602 128.935 42.9898C126.457 44.6104 124.079 48.3579 123.371 51.751C122.157 57.7269 121.348 59.6007 118.667 62.2341C115.632 65.3233 112.547 66.5388 108.045 66.5388C100.913 66.5388 95.4496 61.677 93.831 53.878C92.9205 49.624 91.1501 46.2816 88.5198 44.2052C85.8389 42.0276 5.8676 5.26072 3.84429 5.26072C2.78205 5.26072 1.82098 5.66587 1.11282 6.42551ZM111.333 91.8603C118.161 93.177 124.231 97.7349 127.013 103.711C130.149 110.446 130.048 116.27 126.71 123.107C123.675 129.285 118.161 133.236 110.877 134.502C104.049 135.667 96.5625 132.982 91.7571 127.665C84.0179 119.056 84.3214 106.091 92.5158 97.9375C95.6014 94.8482 98.9399 93.0251 103.189 92.0629C106.73 91.2526 107.994 91.2526 111.333 91.8603Z" fill="#6A80FF"/>
<path d="M104.909 100.419C100.002 101.685 96.0566 105.635 95.0956 110.294C93.3757 118.701 99.2433 125.943 107.792 125.994C118.161 126.044 124.13 114.447 118.212 105.686C115.48 101.685 109.41 99.2541 104.909 100.419Z" fill="#4863F7"/>
<path d="M193.9 74.48C205.42 74.48 214.66 78.32 221.62 86C228.58 93.56 232.06 104 232.06 117.32V176H201.46V121.46C201.46 114.74 199.72 109.52 196.24 105.8C192.76 102.08 188.08 100.22 182.2 100.22C176.32 100.22 171.64 102.08 168.16 105.8C164.68 109.52 162.94 114.74 162.94 121.46V176H132.16V42.8H162.94V89.06C166.06 84.62 170.32 81.08 175.72 78.44C181.12 75.8 187.18 74.48 193.9 74.48Z" fill="white"/>
</svg>
